<svg width="12" height="12" viewBox="0 0 12 12" fill="none" xmlns="http://www.w3.org/2000/svg">
<path d="M1.5 6H6V6.75H1.5V6ZM0.75 4.125H4.5V4.875H0.75V4.125Z" fill="white"/>
<path d="M11.2196 6.22725L10.0946 3.60225C10.0657 3.53481 10.0177 3.47733 9.9564 3.43694C9.89514 3.39654 9.82338 3.37501 9.75 3.375H8.625V2.625C8.625 2.52554 8.5855 2.43016 8.51517 2.35984C8.44484 2.28951 8.34946 2.25 8.25 2.25H2.25V3H7.875V7.7085C7.70423 7.80785 7.55477 7.93996 7.4352 8.09724C7.31563 8.25452 7.22831 8.43388 7.17825 8.625H4.82175C4.73048 8.2715 4.51342 7.96343 4.21125 7.75852C3.90908 7.55362 3.54256 7.46595 3.18038 7.51196C2.8182 7.55796 2.48523 7.73447 2.24388 8.00841C2.00254 8.28235 1.86938 8.63491 1.86938 9C1.86938 9.36509 2.00254 9.71765 2.24388 9.99159C2.48523 10.2655 2.8182 10.442 3.18038 10.488C3.54256 10.534 3.90908 10.4464 4.21125 10.2415C4.51342 10.0366 4.73048 9.7285 4.82175 9.375H7.17825C7.25983 9.69684 7.44639 9.98229 7.70842 10.1862C7.97045 10.3901 8.29299 10.5008 8.625 10.5008C8.95702 10.5008 9.27956 10.3901 9.54159 10.1862C9.80362 9.98229 9.99018 9.69684 10.0718 9.375H10.875C10.9745 9.375 11.0698 9.33549 11.1402 9.26517C11.2105 9.19484 11.25 9.09946 11.25 9V6.375C11.25 6.3242 11.2397 6.27393 11.2196 6.22725ZM3.375 9.75C3.22667 9.75 3.08166 9.70601 2.95833 9.6236C2.83499 9.54119 2.73886 9.42406 2.68209 9.28701C2.62533 9.14997 2.61048 8.99917 2.63941 8.85368C2.66835 8.7082 2.73978 8.57456 2.84467 8.46967C2.94956 8.36478 3.0832 8.29335 3.22869 8.26441C3.37417 8.23547 3.52497 8.25032 3.66202 8.30709C3.79906 8.36386 3.91619 8.45999 3.99861 8.58332C4.08102 8.70666 4.125 8.85166 4.125 9C4.125 9.19891 4.04599 9.38968 3.90533 9.53033C3.76468 9.67098 3.57392 9.75 3.375 9.75ZM8.625 4.125H9.5025L10.3065 6H8.625V4.125ZM8.625 9.75C8.47667 9.75 8.33166 9.70601 8.20833 9.6236C8.08499 9.54119 7.98886 9.42406 7.93209 9.28701C7.87533 9.14997 7.86048 8.99917 7.88941 8.85368C7.91835 8.7082 7.98978 8.57456 8.09467 8.46967C8.19956 8.36478 8.3332 8.29335 8.47869 8.26441C8.62417 8.23547 8.77497 8.25032 8.91202 8.30709C9.04906 8.36386 9.16619 8.45999 9.24861 8.58332C9.33102 8.70666 9.375 8.85166 9.375 9C9.375 9.19891 9.29599 9.38968 9.15533 9.53033C9.01468 9.67098 8.82392 9.75 8.625 9.75ZM10.5 8.625H10.0718C9.98915 8.30379 9.80229 8.01907 9.54047 7.81547C9.27865 7.61188 8.95667 7.50092 8.625 7.5V6.75H10.5V8.625Z" fill="white"/>
</svg>
