<svg width="50" height="50" viewBox="0 0 50 50" fill="none" xmlns="http://www.w3.org/2000/svg">
<path d="M45.8334 11.458V39.583C45.8334 43.0351 36.5063 45.833 25.0001 45.833C13.4938 45.833 4.16675 43.0351 4.16675 39.583V11.458" stroke="#46AB3E" stroke-width="2" stroke-linecap="round" stroke-linejoin="round"/>
<path d="M45.8334 30.208C45.8334 33.6601 36.5063 36.458 25.0001 36.458C13.4938 36.458 4.16675 33.6601 4.16675 30.208M45.8334 20.833C45.8334 24.2851 36.5063 27.083 25.0001 27.083C13.4938 27.083 4.16675 24.2851 4.16675 20.833" stroke="#46AB3E" stroke-width="2" stroke-linecap="round" stroke-linejoin="round"/>
<path d="M25.0001 16.6665C36.506 16.6665 45.8334 13.8683 45.8334 10.4165C45.8334 6.96472 36.506 4.1665 25.0001 4.1665C13.4941 4.1665 4.16675 6.96472 4.16675 10.4165C4.16675 13.8683 13.4941 16.6665 25.0001 16.6665Z" stroke="#46AB3E" stroke-width="2" stroke-linecap="round" stroke-linejoin="round"/>
</svg>
